<svg xmlns="http://www.w3.org/2000/svg" viewBox="0 0 1200 700" role="img" aria-label="Bomber Arena">
  <defs>
    <linearGradient id="bg" x1="0" y1="0" x2="1" y2="1">
      <stop offset="0%" stop-color="#111827"/>
      <stop offset="100%" stop-color="#0f172a"/>
    </linearGradient>
  </defs>
  <rect width="1200" height="700" fill="url(#bg)"/>
  <text x="60" y="90" fill="#e5e7eb" font-family="Arial, sans-serif" font-size="56" font-weight="700">Bomber Arena</text>
  <g transform="translate(285,140)">
    <rect width="630" height="420" rx="22" fill="#1f2937" stroke="#6b7280" stroke-width="6"/>
    <g fill="#334155">
      <rect x="30" y="30" width="70" height="70"/><rect x="110" y="30" width="70" height="70"/>
      <rect x="190" y="30" width="70" height="70"/><rect x="270" y="30" width="70" height="70"/>
      <rect x="350" y="30" width="70" height="70"/><rect x="430" y="30" width="70" height="70"/>
      <rect x="510" y="30" width="70" height="70"/>
      <rect x="30" y="110" width="70" height="70"/><rect x="110" y="110" width="70" height="70"/>
      <rect x="190" y="110" width="70" height="70"/><rect x="270" y="110" width="70" height="70"/>
      <rect x="350" y="110" width="70" height="70"/><rect x="430" y="110" width="70" height="70"/>
      <rect x="510" y="110" width="70" height="70"/>
    </g>
    <circle cx="160" cy="260" r="24" fill="#22c55e"/>
    <rect x="270" y="230" width="46" height="46" rx="10" fill="#f59e0b"/>
    <circle cx="430" cy="300" r="20" fill="#ef4444"/>
    <circle cx="520" cy="210" r="18" fill="#f8fafc"/>
    <path d="M520 210 L550 180 M520 210 L550 240 M520 210 L490 180 M520 210 L490 240" stroke="#f59e0b" stroke-width="8" stroke-linecap="round"/>
  </g>
  <text x="60" y="640" fill="#cbd5e1" font-family="Arial, sans-serif" font-size="30">Lay bombs. Clear tiles. Survive the blast.</text>
</svg>
